<svg width="30" height="30" viewBox="0 0 30 30" fill="none" xmlns="http://www.w3.org/2000/svg">
<path d="M30 10C30 11.83 29.3713 13.8288 28.1325 15.9412C28.015 16.14 27.8062 16.25 27.5925 16.25C27.4837 16.25 27.375 16.2225 27.2762 16.1637C26.9787 15.9887 26.8787 15.6062 27.0525 15.3088C28.1775 13.39 28.7488 11.605 28.7488 10C28.7488 6.075 25.4725 2.5 21.8738 2.5C18.9313 2.5 17.425 3.65875 16.02 4.94875L10.6562 10.2587C9.92 10.995 9.7825 12.135 10.34 12.9087C10.6938 13.4 11.2137 13.6962 11.805 13.7437C12.3875 13.7875 12.96 13.5813 13.3725 13.1687L18.935 7.68125C19.18 7.43875 19.5775 7.44125 19.8187 7.6875C20.0612 7.9325 20.0588 8.32875 19.8137 8.57125L18.0187 10.3425L24.665 16.1763C25.87 17.2325 26.1725 18.9975 25.3687 20.2825C24.8738 21.075 24.0638 21.6075 23.15 21.7412C22.8563 21.785 22.56 21.7875 22.27 21.7463C22.4325 22.5162 22.3162 23.3287 21.8925 24.0075C21.3962 24.8012 20.5863 25.3325 19.6725 25.4662C19.2388 25.53 18.805 25.5025 18.395 25.39C18.445 26.0325 18.3062 26.6825 17.955 27.2412C17.46 28.0337 16.65 28.5662 15.7362 28.7C15.5825 28.7225 15.43 28.7337 15.2775 28.7337C14.5188 28.7337 13.7812 28.46 13.2037 27.9525L9.1525 24.3175C2.99375 18.7513 0 14.0688 0 10C0 5.33875 3.7975 1.25 8.125 1.25C9.575 1.25 11.0238 1.72 12.3175 2.61C12.6025 2.80625 12.6737 3.195 12.4788 3.47875C12.2837 3.765 11.895 3.83625 11.61 3.64C10.5262 2.89375 9.32125 2.5 8.12625 2.5C4.52875 2.5 1.25125 6.075 1.25125 10C1.25125 13.6438 4.19125 18.1488 9.99 23.3888L14.0338 27.0175C14.4475 27.3813 15.0025 27.5425 15.5562 27.4638C16.115 27.3825 16.5925 27.0675 16.8975 26.5788C17.38 25.8088 17.1787 24.7313 16.4287 24.0738L12.2587 20.11C12.0087 19.8725 11.9987 19.4775 12.2362 19.2275C12.4725 18.9762 12.8687 18.9663 13.1187 19.2025L17.9825 23.7938C18.3837 24.1462 18.94 24.3138 19.4925 24.23C20.0513 24.1488 20.5287 23.8338 20.835 23.345C21.3162 22.5763 21.115 21.4988 20.365 20.8413L15.7212 16.6375C15.4662 16.4063 15.445 16.0125 15.675 15.7562C15.9038 15.4987 16.2975 15.4775 16.5562 15.7062L21.445 20.0575C21.8612 20.4212 22.4137 20.585 22.97 20.505C23.5287 20.4225 24.005 20.1087 24.3112 19.62C24.7925 18.85 24.5912 17.7725 23.8412 17.1163L17.1275 11.2225L14.255 14.0562C13.585 14.7262 12.655 15.0625 11.7062 14.9913C10.7575 14.9137 9.89 14.4225 9.3275 13.64C8.41625 12.375 8.60875 10.5413 9.77625 9.37375L15.1587 4.04625C16.7062 2.62375 18.485 1.25125 21.875 1.25125C26.2038 1.25125 30 5.34 30 10.0013V10Z" fill="black"/>
</svg>
