<svg width="30" height="30" viewBox="0 0 30 30" fill="none" xmlns="http://www.w3.org/2000/svg">
<g clip-path="url(#clip0_329_115)">
<path d="M12.4998 28.235V29.9825L3.66604 21.3438C-1.21271 16.465 -1.21271 8.535 3.66104 3.66125C6.02229 1.3 9.16104 0 12.4998 0C15.8385 0 18.9773 1.3 21.3385 3.66125C23.6998 6.0225 24.9998 9.16125 24.9998 12.5C24.9998 13.7913 24.801 15.0513 24.4248 16.25H23.0985C23.5185 15.06 23.7498 13.8 23.7498 12.5C23.7498 9.495 22.5798 6.67 20.4548 4.545C18.3298 2.42125 15.5048 1.25 12.4998 1.25C9.49479 1.25 6.66979 2.42125 4.54479 4.545C0.157285 8.9325 0.157285 16.0688 4.54479 20.455L12.4998 28.235ZM12.4998 17.5C9.74228 17.5 7.49979 15.2575 7.49979 12.5C7.49979 9.7425 9.74228 7.5 12.4998 7.5C15.2573 7.5 17.4998 9.7425 17.4998 12.5C17.4998 15.2575 15.2573 17.5 12.4998 17.5ZM16.2498 12.5C16.2498 10.4325 14.5673 8.75 12.4998 8.75C10.4323 8.75 8.74979 10.4325 8.74979 12.5C8.74979 14.5675 10.4323 16.25 12.4998 16.25C14.5673 16.25 16.2498 14.5675 16.2498 12.5ZM29.9998 21.25V30H14.9998V21.25C14.9998 19.8713 16.121 18.75 17.4998 18.75H27.4998C28.8785 18.75 29.9998 19.8713 29.9998 21.25ZM17.4998 20C17.2773 20 17.0798 20.0738 16.8985 20.1763L21.1735 24.4513C21.881 25.1588 23.1173 25.1588 23.8248 24.4513L28.0998 20.1763C27.9185 20.0738 27.721 20 27.4985 20H17.4985H17.4998ZM28.7498 28.75V21.2938L24.7098 25.3337C24.1198 25.925 23.3348 26.2488 22.4998 26.2488C21.6648 26.2488 20.8798 25.9237 20.2898 25.3337L16.2498 21.2938V28.75H28.7498Z" fill="black"/>
</g>
<defs>
<clipPath id="clip0_329_115">
<rect width="30" height="30" fill="white"/>
</clipPath>
</defs>
</svg>
