<svg width="30" height="30" viewBox="0 0 30 30" fill="none" xmlns="http://www.w3.org/2000/svg">
<g clip-path="url(#clip0_329_138)">
<path d="M20 12.5C22.0675 12.5 23.75 10.8175 23.75 8.75C23.75 6.6825 22.0675 5 20 5C17.9325 5 16.25 6.6825 16.25 8.75C16.25 9.1875 16.3263 9.60875 16.465 9.99875L11.6762 12.6587C10.9887 11.8012 9.9325 11.25 8.75 11.25C6.6825 11.25 5 12.9325 5 15C5 17.0675 6.6825 18.75 8.75 18.75C9.9325 18.75 10.9887 18.1987 11.6762 17.3412L16.4637 20.0012C16.325 20.3925 16.2487 20.8125 16.2487 21.25C16.2487 23.3175 17.9312 25 19.9987 25C22.0662 25 23.7488 23.3175 23.7488 21.25C23.7488 19.1825 22.0662 17.5 19.9987 17.5C18.8162 17.5 17.76 18.0513 17.0725 18.9088L12.285 16.2487C12.4237 15.8575 12.5 15.4375 12.5 15C12.5 14.5625 12.4237 14.1425 12.285 13.7513L17.0737 11.0913C17.7613 11.9488 18.8175 12.5 20 12.5ZM20 18.75C21.3787 18.75 22.5 19.8713 22.5 21.25C22.5 22.6287 21.3787 23.75 20 23.75C18.6213 23.75 17.5 22.6287 17.5 21.25C17.5 19.5513 19.0737 18.75 20 18.75ZM8.75 17.5C7.37125 17.5 6.25 16.3787 6.25 15C6.25 13.6213 7.37125 12.5 8.75 12.5C10.1287 12.5 11.25 13.6213 11.25 15C11.25 16.3787 10.1287 17.5 8.75 17.5ZM20 6.25C21.3787 6.25 22.5 7.37125 22.5 8.75C22.5 10.1287 21.3787 11.25 20 11.25C18.59 11.25 17.5 10 17.5 8.75C17.5 7.37125 18.6213 6.25 20 6.25ZM24.375 0H5.625C2.52375 0 0 2.52375 0 5.625V24.375C0 27.4762 2.52375 30 5.625 30H24.375C27.4762 30 30 27.4762 30 24.375V5.625C30 2.52375 27.4762 0 24.375 0ZM28.75 24.375C28.75 26.7875 26.7875 28.75 24.375 28.75H5.625C3.2125 28.75 1.25 26.7875 1.25 24.375V5.625C1.25 3.2125 3.2125 1.25 5.625 1.25H24.375C26.7875 1.25 28.75 3.2125 28.75 5.625V24.375Z" fill="black"/>
</g>
<defs>
<clipPath id="clip0_329_138">
<rect width="30" height="30" fill="white"/>
</clipPath>
</defs>
</svg>
