<svg width="25" height="25" viewBox="0 0 25 25" fill="none" xmlns="http://www.w3.org/2000/svg">
<path d="M17.3219 14.4698L17.7969 13.9979L16.6938 12.8896L16.2208 13.3614L17.3219 14.4698ZM19.3896 13.8L21.3802 14.8823L22.125 13.5094L20.1354 12.4281L19.3896 13.8ZM21.7625 17.0323L20.2833 18.5041L21.3844 19.6114L22.8636 18.1406L21.7625 17.0323ZM19.3813 18.9771C17.8709 19.1187 13.9646 18.9927 9.73335 14.7864L8.63127 15.8937C13.2479 20.4844 17.6427 20.7094 19.5271 20.5333L19.3813 18.9771ZM9.73335 14.7864C5.70106 10.776 5.03231 7.40415 4.94898 5.9406L3.38856 6.02915C3.49273 7.87081 4.32085 11.6083 8.63127 15.8937L9.73335 14.7864ZM11.1656 8.34894L11.4646 8.05102L10.3646 6.94373L10.0656 7.2406L11.1656 8.34894ZM11.7021 4.26456L10.3896 2.5104L9.13856 3.4479L10.4511 5.20102L11.7021 4.26456ZM5.97189 2.1281L4.33648 3.7531L5.43856 4.86144L7.07293 3.23644L5.97189 2.1281ZM10.6156 7.79477C10.0636 7.2406 10.0636 7.2406 10.0636 7.24269H10.0615L10.0584 7.24685C10.0092 7.29705 9.96487 7.35181 9.92606 7.41039C9.86981 7.49373 9.80835 7.6031 9.75627 7.74165C9.62942 8.09927 9.59783 8.48374 9.6646 8.85727C9.80418 9.75831 10.425 10.9489 12.0146 12.5302L13.1167 11.4219C11.6281 9.94269 11.274 9.04269 11.2084 8.61769C11.1771 8.4156 11.2094 8.3156 11.2188 8.29269C11.224 8.2781 11.2261 8.27706 11.2188 8.28644C11.2096 8.30088 11.1991 8.31448 11.1875 8.32706L11.1771 8.33748C11.1737 8.34072 11.1703 8.34384 11.1667 8.34685L10.6156 7.79477ZM12.0146 12.5302C13.6052 14.1114 14.8021 14.7281 15.7042 14.8656C16.1656 14.9364 16.5375 14.8802 16.8198 14.775C16.9777 14.7166 17.1253 14.6336 17.2573 14.5291C17.2752 14.5142 17.2926 14.4985 17.3094 14.4823L17.3167 14.476L17.3198 14.4729L17.3209 14.4708C17.3209 14.4708 17.3219 14.4698 16.7709 13.9156C16.2188 13.3614 16.2219 13.3604 16.2219 13.3604L16.224 13.3583L16.2261 13.3562L16.2323 13.351L16.2427 13.3406C16.2552 13.3294 16.2685 13.3189 16.2823 13.3094C16.2927 13.3021 16.2896 13.3052 16.275 13.3114C16.249 13.3208 16.1469 13.3531 15.9417 13.3219C15.5104 13.2552 14.6042 12.901 13.1167 11.4219L12.0146 12.5302ZM10.3896 2.50935C9.3271 1.09269 7.2396 0.867687 5.97189 2.1281L7.07293 3.23644C7.6271 2.6854 8.61043 2.74269 9.13856 3.4479L10.3896 2.50935ZM4.95002 5.94165C4.92918 5.58123 5.09481 5.20415 5.43856 4.86248L4.33543 3.75415C3.77606 4.3104 3.33543 5.0979 3.38856 6.02915L4.95002 5.94165ZM20.2833 18.5041C19.9979 18.7896 19.6896 18.95 19.3823 18.9781L19.5271 20.5333C20.2927 20.4614 20.9188 20.076 21.3854 19.6125L20.2833 18.5041ZM11.4646 8.05102C12.4906 7.03123 12.5667 5.41977 11.7031 4.2656L10.4521 5.20206C10.8719 5.76352 10.8094 6.49998 10.3636 6.94477L11.4646 8.05102ZM21.3813 14.8833C22.2323 15.3458 22.3646 16.4354 21.7636 17.0333L22.8656 18.1406C24.2615 16.7521 23.8313 14.4364 22.1261 13.5104L21.3813 14.8833ZM17.7969 13.9989C18.1969 13.601 18.8406 13.5031 19.3906 13.801L20.1365 12.4291C19.0073 11.8146 17.6073 11.9844 16.6948 12.8906L17.7969 13.9989Z" fill="#1A171B"/>
</svg>
