<svg width="30" height="30" viewBox="0 0 30 30" fill="none" xmlns="http://www.w3.org/2000/svg">
<path d="M15 18.75C17.0711 18.75 18.75 17.0711 18.75 15C18.75 12.9289 17.0711 11.25 15 11.25C12.9289 11.25 11.25 12.9289 11.25 15C11.25 17.0711 12.9289 18.75 15 18.75Z" stroke="#FFCD05" stroke-width="1.875"/>
<path d="M4.57626 13.3C5.16751 13.67 5.54751 14.3025 5.54751 15C5.54751 15.6975 5.16751 16.33 4.57626 16.7C4.17501 16.9537 3.91501 17.155 3.73126 17.395C3.53138 17.6555 3.38478 17.9529 3.29985 18.2701C3.21491 18.5873 3.19331 18.9182 3.23626 19.2438C3.30126 19.7363 3.59251 20.2413 4.17376 21.25C4.75751 22.2587 5.04876 22.7625 5.44251 23.0662C5.70306 23.2661 6.00043 23.4127 6.31765 23.4977C6.63486 23.5826 6.9657 23.6042 7.29126 23.5613C7.59126 23.5213 7.89501 23.3988 8.31501 23.1763C8.61559 23.0118 8.95305 22.9264 9.29568 22.9281C9.63832 22.9299 9.97488 23.0187 10.2738 23.1862C10.8775 23.5362 11.2363 24.18 11.2613 24.8775C11.2788 25.3525 11.3238 25.6775 11.44 25.9562C11.5657 26.2598 11.7499 26.5356 11.9822 26.7678C12.2145 27.0001 12.4902 27.1844 12.7938 27.31C13.2525 27.5 13.835 27.5 15 27.5C16.165 27.5 16.7475 27.5 17.2063 27.31C17.5098 27.1844 17.7856 27.0001 18.0179 26.7678C18.2501 26.5356 18.4344 26.2598 18.56 25.9562C18.675 25.6775 18.7213 25.3525 18.7388 24.8775C18.7638 24.18 19.1225 23.535 19.7263 23.1862C20.0251 23.0187 20.3617 22.9299 20.7043 22.9281C21.047 22.9264 21.3844 23.0118 21.685 23.1763C22.105 23.3988 22.41 23.5213 22.71 23.5613C23.3671 23.6477 24.0316 23.4696 24.5575 23.0662C24.9513 22.7637 25.2425 22.2587 25.825 21.25C26.085 20.8 26.2863 20.4513 26.4363 20.1588M25.4238 16.7013C25.1311 16.5234 24.8885 16.2741 24.7186 15.9767C24.5487 15.6793 24.4571 15.3437 24.4525 15.0013C24.4525 14.3025 24.8325 13.67 25.4238 13.2987C25.825 13.0462 26.0838 12.845 26.2688 12.605C26.4686 12.3445 26.6152 12.0471 26.7002 11.7299C26.7851 11.4127 26.8067 11.0818 26.7638 10.7562C26.6988 10.2637 26.4075 9.75875 25.8263 8.75C25.2425 7.74125 24.9513 7.2375 24.5575 6.93375C24.297 6.73386 23.9996 6.58727 23.6824 6.50233C23.3652 6.4174 23.0343 6.39579 22.7088 6.43875C22.4088 6.47875 22.105 6.60125 21.6838 6.82375C21.3833 6.98802 21.0461 7.07328 20.7037 7.07153C20.3613 7.06978 20.025 6.98108 19.7263 6.81375C19.4318 6.63863 19.1867 6.39155 19.014 6.09571C18.8413 5.79987 18.7466 5.46499 18.7388 5.1225C18.7213 4.6475 18.6763 4.3225 18.56 4.04375C18.4344 3.74023 18.2501 3.46444 18.0179 3.23215C17.7856 2.99987 17.5098 2.81564 17.2063 2.69C16.7475 2.5 16.165 2.5 15 2.5C13.835 2.5 13.2525 2.5 12.7938 2.69C12.4902 2.81564 12.2145 2.99987 11.9822 3.23215C11.7499 3.46444 11.5657 3.74023 11.44 4.04375C11.325 4.3225 11.2788 4.6475 11.2613 5.1225C11.2535 5.46499 11.1588 5.79987 10.986 6.09571C10.8133 6.39155 10.5682 6.63863 10.2738 6.81375C9.97488 6.9813 9.63832 7.07013 9.29568 7.07188C8.95305 7.07363 8.61559 6.98824 8.31501 6.82375C7.89501 6.60125 7.59001 6.47875 7.29001 6.43875C6.63291 6.35234 5.96839 6.53038 5.44251 6.93375C5.05001 7.2375 4.75751 7.74125 4.17501 8.75C3.91501 9.2 3.71376 9.54875 3.56376 9.84125" stroke="#FFCD05" stroke-width="1.875" stroke-linecap="round"/>
</svg>
